<?xml version="1.0" encoding="UTF-8" standalone="no"?>
<!DOCTYPE svg PUBLIC "-//W3C//DTD SVG 1.1//EN" "http://www.w3.org/Graphics/SVG/1.1/DTD/svg11.dtd">
<svg width="100%" height="100%" viewBox="0 0 100 100" version="1.1" xmlns="http://www.w3.org/2000/svg" xmlns:xlink="http://www.w3.org/1999/xlink" xml:space="preserve" xmlns:serif="http://www.serif.com/" style="fill-rule:evenodd;clip-rule:evenodd;stroke-linejoin:round;stroke-miterlimit:2; width: 30px;">
    <g id="background">
        <rect x="0" y="0" width="100" height="100" style="fill:rgb(166,0,255);"/>
    </g>
    <g id="whites">
        <path id="cream" d="M49.135,75.467L35.516,81.441L28.202,76.989L8.433,32.161L10.942,24.62L44.311,10.077L45.424,6.523L51.871,3.559L89.043,17.641L92.265,25.27L84.628,47.875L80.424,58.564L80.415,76.003L66.3,85.104L49.135,75.467Z" style="fill:rgb(224,217,198);"/>
        <g transform="matrix(-0.707107,0.707107,-0.707107,-0.707107,65.6754,67.467)">
            <g id="white">
                <circle cx="0" cy="0" r="15.678" style="fill:white;"/>
            </g>
        </g>
    </g>
    <g id="documents">
        <g id="rear-document-border" serif:id="rear document border" transform="matrix(1,0,0,1,0,-4)">
            <path d="M33.859,86.094C32.902,86.094 31.957,85.918 31.062,85.578C29.132,84.836 27.578,83.356 26.734,81.469L6.968,37.25C6.128,35.355 6.073,33.207 6.816,31.273C7.562,29.336 9.042,27.777 10.937,26.937L43.749,12.249C44.522,11.957 45.385,12.316 45.725,13.07C46.065,13.824 45.761,14.706 45.03,15.093L12.218,29.781C11.081,30.289 10.195,31.226 9.749,32.391C9.304,33.535 9.327,34.809 9.812,35.937L29.578,80.156C30.082,81.309 31.031,82.207 32.207,82.653C33.379,83.102 34.687,83.055 35.828,82.532L41.75,79.875C42.562,79.539 43.492,79.922 43.828,80.735C44.164,81.547 43.781,82.477 42.968,82.813L37.046,85.469C36.039,85.899 34.953,86.11 33.859,86.094L33.859,86.094Z" style="fill-rule:nonzero;"/>
        </g>
        <g transform="matrix(1,0,0,1,0,-4)">
            <path d="M28.125,53.766C26.121,53.77 24.273,52.672 23.316,50.914C22.355,49.153 22.437,47.008 23.527,45.325C24.617,43.645 26.539,42.692 28.535,42.844C30.535,42.996 32.289,44.235 33.109,46.063C33.117,46.121 33.117,46.176 33.109,46.235C33.168,46.399 33.199,46.575 33.203,46.75C33.203,47.508 32.656,48.157 31.91,48.29C31.164,48.418 30.43,47.993 30.172,47.282C29.609,46.122 28.223,45.622 27.047,46.157C25.851,46.661 25.293,48.04 25.797,49.235C26.301,50.43 27.68,50.989 28.875,50.485C29.555,50.09 30.426,50.266 30.898,50.895C31.375,51.52 31.312,52.403 30.75,52.954C30.598,53.102 30.418,53.219 30.219,53.297C29.558,53.594 28.848,53.754 28.125,53.766L28.125,53.766Z" style="fill-rule:nonzero;"/>
        </g>
        <g transform="matrix(1,0,0,1,0,-4)">
            <path d="M35.688,37.984C35.075,37.984 34.516,37.621 34.266,37.062L31.063,29.89C30.903,29.504 30.903,29.074 31.063,28.687C31.2,28.3 31.497,27.988 31.876,27.828L39.047,24.703C39.821,24.41 40.684,24.769 41.024,25.523C41.364,26.277 41.059,27.16 40.329,27.546L34.579,30.109L37.141,35.843C37.493,36.629 37.145,37.55 36.36,37.906C36.145,37.98 35.915,38.007 35.688,37.984L35.688,37.984Z" style="fill-rule:nonzero;"/>
        </g>
        <g transform="matrix(1,0,0,1,0,-4)">
            <path d="M31.734,48.266C31.066,48.27 30.468,47.848 30.25,47.219C30.113,46.821 30.14,46.383 30.328,46.008C30.515,45.633 30.847,45.348 31.25,45.219C31.644,45.075 32.082,45.098 32.461,45.278C32.839,45.461 33.132,45.789 33.265,46.188C33.546,46.993 33.128,47.879 32.328,48.172C32.136,48.235 31.937,48.266 31.734,48.266L31.734,48.266Z" style="fill-rule:nonzero;"/>
        </g>
        <g transform="matrix(1,0,0,1,0,-4)">
            <path d="M42.188,70.922C41.997,70.922 41.805,70.887 41.626,70.813L30.767,66.656C26.743,65.113 24.731,60.606 26.267,56.578L30.22,46.219C30.235,46.157 30.263,46.098 30.298,46.048L43.61,11.329C44.352,9.391 45.832,7.832 47.723,6.989C49.618,6.145 51.77,6.086 53.704,6.829L88.735,20.22C92.754,21.759 94.774,26.255 93.25,30.282L84.485,53.126C84.36,53.54 84.063,53.887 83.672,54.075C83.281,54.266 82.832,54.286 82.426,54.129C82.02,53.973 81.699,53.653 81.539,53.251C81.379,52.844 81.391,52.391 81.578,52.001L90.328,29.11C90.77,27.945 90.731,26.656 90.223,25.524C89.711,24.391 88.774,23.504 87.609,23.063L52.578,9.735C51.407,9.289 50.11,9.332 48.969,9.852C47.832,10.371 46.95,11.325 46.516,12.5L33.235,47.297L33.235,47.422L29.282,57.75C28.84,58.914 28.88,60.203 29.387,61.336C29.899,62.469 30.837,63.356 32.001,63.797L42.939,67.953C43.607,68.274 43.958,69.024 43.775,69.742C43.595,70.465 42.931,70.957 42.189,70.922L42.188,70.922Z" style="fill-rule:nonzero;"/>
        </g>
        <g transform="matrix(1,0,0,1,0,-4)">
            <path d="M48.438,44.016C47.77,44.012 47.106,43.887 46.485,43.641C44.419,42.844 43.036,40.883 42.981,38.672C42.926,36.457 44.212,34.43 46.235,33.536C48.262,32.641 50.626,33.055 52.227,34.582C53.825,36.11 54.348,38.454 53.547,40.516C53.036,41.875 52.001,42.973 50.672,43.563C49.965,43.868 49.208,44.02 48.438,44.016L48.438,44.016ZM48.438,36.204C47.294,36.188 46.309,37 46.102,38.125C45.899,39.25 46.536,40.36 47.61,40.75C48.817,41.196 50.161,40.59 50.626,39.391C50.868,38.817 50.868,38.168 50.626,37.594C50.368,37.032 49.903,36.586 49.329,36.36C49.043,36.25 48.743,36.196 48.438,36.188L48.438,36.204Z" style="fill-rule:nonzero;"/>
        </g>
        <g transform="matrix(1,0,0,1,0,-4)">
            <path d="M76.562,37.281C75.992,37.277 75.425,37.172 74.89,36.969C73.726,36.523 72.789,35.637 72.281,34.5C71.753,33.359 71.706,32.054 72.152,30.882C72.597,29.707 73.492,28.757 74.64,28.25C75.781,27.722 77.085,27.675 78.257,28.121C79.433,28.566 80.382,29.461 80.89,30.609C81.398,31.746 81.433,33.039 80.984,34.203C80.304,36.058 78.539,37.289 76.562,37.281L76.562,37.281ZM76.562,31.031C75.914,31.035 75.335,31.441 75.109,32.047C74.953,32.426 74.953,32.855 75.109,33.234C75.371,33.804 75.945,34.164 76.574,34.144C77.199,34.129 77.753,33.738 77.984,33.156C78.14,32.777 78.14,32.347 77.984,31.968C77.82,31.59 77.507,31.293 77.125,31.14C76.945,31.07 76.753,31.027 76.562,31.015L76.562,31.031Z" style="fill-rule:nonzero;"/>
        </g>
        <g transform="matrix(1,0,0,1,0,-4)">
            <path d="M70.984,51.875C70.414,51.871 69.847,51.766 69.312,51.563C66.898,50.637 65.687,47.934 66.609,45.516C67.054,44.352 67.941,43.414 69.078,42.906C70.804,42.16 72.812,42.516 74.176,43.812C75.535,45.109 75.992,47.098 75.328,48.859C74.64,50.664 72.914,51.859 70.984,51.875L70.984,51.875ZM70.984,45.625C70.765,45.629 70.547,45.668 70.343,45.75C69.968,45.922 69.675,46.238 69.531,46.625C69.222,47.426 69.621,48.328 70.422,48.641C70.808,48.789 71.238,48.773 71.617,48.605C71.996,48.434 72.289,48.121 72.437,47.734C72.593,47.355 72.593,46.926 72.437,46.547C72.273,46.168 71.961,45.871 71.578,45.719C71.386,45.652 71.187,45.621 70.984,45.625L70.984,45.625Z" style="fill-rule:nonzero;"/>
        </g>
        <g transform="matrix(1,0,0,1,0,-4)">
            <path d="M68.062,47.625C67.875,47.625 67.691,47.594 67.515,47.531L58.75,44.187C58.359,44.039 58.042,43.742 57.875,43.359C57.714,42.988 57.691,42.574 57.812,42.187L63.39,27.593C63.703,26.793 64.605,26.394 65.406,26.703L74.171,30.047C74.558,30.195 74.871,30.488 75.042,30.867C75.21,31.246 75.226,31.676 75.078,32.062C74.929,32.453 74.632,32.769 74.249,32.941C73.871,33.109 73.437,33.121 73.046,32.968L65.781,30.14L61.328,41.812L68.625,44.609C69.011,44.758 69.324,45.051 69.496,45.43C69.664,45.808 69.679,46.238 69.531,46.625C69.296,47.23 68.71,47.629 68.062,47.625L68.062,47.625Z" style="fill-rule:nonzero;"/>
        </g>
        <g transform="matrix(1,0,0,1,0,-4)">
            <path d="M59.375,44.281C59.184,44.281 58.992,44.25 58.813,44.187L51.516,41.39C50.707,41.086 50.305,40.183 50.609,39.375C50.914,38.566 51.816,38.164 52.625,38.469L59.922,41.265C60.613,41.539 61.02,42.265 60.887,42.996C60.754,43.73 60.121,44.269 59.375,44.281L59.375,44.281Z" style="fill-rule:nonzero;"/>
        </g>
        <g transform="matrix(1,0,0,1,-3.21525,4.382)">
            <path d="M90.328,29.11L93.25,30.282L84.485,53.126C84.36,53.54 84.063,53.887 83.672,54.075C83.281,54.266 82.832,54.286 82.426,54.129C82.02,53.973 81.699,53.653 81.539,53.251C81.379,52.844 81.391,52.391 81.578,52.001L90.328,29.11Z" style="fill-rule:nonzero;"/>
        </g>
        <g transform="matrix(6.12323e-17,-1,1,6.12323e-17,-6.15446,150.001)">
            <path d="M85.547,41.617L88.469,42.789L84.485,53.126C84.36,53.54 84.063,53.887 83.672,54.075C83.281,54.266 82.832,54.286 82.426,54.129C82.02,53.973 81.699,53.653 81.539,53.251C81.379,52.844 81.391,52.391 81.578,52.001L85.547,41.617Z" style="fill-rule:nonzero;"/>
        </g>
        <g transform="matrix(-0.722903,-0.709518,0.700469,-0.713683,70.2077,171.668)">
            <path d="M85.547,41.617L88.469,42.789L84.485,53.126C84.36,53.54 84.063,53.887 83.672,54.075C83.281,54.266 82.832,54.286 82.426,54.129C82.02,53.973 81.699,53.653 81.539,53.251C81.379,52.844 81.391,52.391 81.578,52.001L85.547,41.617Z" style="fill-rule:nonzero;"/>
        </g>
    </g>
    <g id="magnifying-glass" serif:id="magnifying glass" transform="matrix(0.497006,0,0,0.497006,34.4769,51.6856)">
        <g transform="matrix(1,0,0,1,0,-8.04819)">
            <path d="M87.93,11.637C72.414,-3.879 46.981,-3.879 31.465,11.637C18.102,25 15.949,45.688 25.43,61.207L2.586,83.621C-0.863,87.5 -0.863,93.535 2.586,96.984C6.465,100.863 12.5,100.863 16.379,96.984L38.793,74.57C54.309,84.054 74.57,81.898 87.93,68.535C103.879,53.019 103.879,27.586 87.93,11.637L87.93,11.637ZM79.739,20.258C90.516,31.465 90.516,49.137 79.739,59.914C68.532,71.121 50.86,71.121 39.653,59.914C28.876,49.137 28.876,31.465 39.653,20.258C50.86,9.481 68.532,9.481 79.739,20.258Z" style="fill-rule:nonzero;"/>
        </g>
        <g transform="matrix(0.34077,-0.940147,0.940147,0.34077,1.36155,74.5443)">
            <path d="M76.723,39.223C76.723,43.532 83.621,43.102 83.188,38.793C82.758,32.758 80.172,27.586 76.289,23.707C72.411,19.399 66.805,17.243 61.203,16.809C56.895,16.379 56.461,22.844 60.774,23.274C64.653,23.703 68.532,25.43 71.551,28.446C74.566,31.461 76.293,34.91 76.723,39.223L76.723,39.223Z" style="fill-rule:nonzero;"/>
        </g>
    </g>
</svg>
