<?xml version="1.0" encoding="UTF-8"?>
<svg version="1.1" viewBox="0 0 1200 1200" xmlns="http://www.w3.org/2000/svg">
 <path d="m350.72 178.5c-29.723 0-53.41 1.6914-71.258 5.2422-17.832 3.5742-32.891 9.6953-45.371 18-16.344 10.414-27.816 24.91-34.5 43.512-6.6836 18.574-10.129 50.496-10.129 96v108.74c0 45.48-8.0273 77.34-24.371 95.629-16.344 18.277-44.543 27.371-84.375 27.371-2.082 0-5.2891-0.070313-9.75-0.37109-4.457-0.30078-8.1211-0.37109-10.5-0.37109v56.617c2.3789 0 6.043-0.070313 10.5-0.37109 4.4609-0.30078 7.668-0.73047 9.75-0.75781 39.832 0.023437 68.031 9.2539 84.375 27.383 16.344 18.133 24.371 49.691 24.371 94.871v108.74c0 44.305 3.4453 76.234 10.129 95.258 6.6836 19.02 18.156 33.551 34.5 44.258 12.48 8.3047 27.77 14.426 45.742 18 17.988 3.5508 41.449 5.2422 70.883 5.2422h15.742v-55.5h-17.242c-37.465 0-62.82-7.1758-75.758-21-12.926-13.824-19.5-42.707-19.5-87v-108c0-49.344-6.1914-84.336-19.129-105-12.926-20.664-36-35.328-69-44.258 33-9.1914 56.074-24.336 69-45 12.938-20.641 19.129-55.633 19.129-105v-107.62c0-44.594 6.7188-74.16 19.5-88.129s37.164-21 73.129-21c2.0742 0 5.2812 0.45703 9.7422 0.74219 4.4531 0.3125 7.7539 0.38281 10.129 0.38281v-56.629h-15.742zm482.05 0v55.5h17.629c37.152 0 62.293 7.2617 75.371 21.371 13.078 14.125 19.5 43.465 19.5 87.758v107.62c0 49.367 6.5625 84.359 19.5 105 12.938 20.664 35.629 35.809 68.629 45-33 8.9297-55.691 23.594-68.629 44.258-12.938 20.664-19.5 55.656-19.5 105v106.87c0 44.891-6.5625 74.762-19.5 88.871-12.938 14.137-37.066 21-72.742 21-2.0742 0-5.293-0.070313-9.7578-0.37109-4.4648-0.30078-8.125-0.37109-10.5-0.37109v55.5h18.383c30.324 0 54.227-1.4531 71.617-4.8711 17.387-3.4219 31.906-9.1328 43.5-16.883 16.055-10.68 27.215-25.367 33.758-44.242 6.5391-18.875 9.7422-51.254 9.7422-96.758v-108c0-45.168 8.2578-76.812 24.758-95.242 16.488-18.434 45-27.73 85.129-27.758 2.0898 0.023438 5.2812 0.45703 9.7422 0.75781 4.4531 0.30078 7.7383 0.37109 10.129 0.37109v-56.617c-2.3867 0-5.6758 0.070312-10.129 0.37109-4.4648 0.30078-7.6562 0.37109-9.7422 0.37109-40.129 0-68.641-9.3359-85.129-27.742-16.5-18.434-24.758-50.074-24.758-95.258v-108.74c0-45.191-3.2031-77.281-9.7422-96-6.5391-18.742-17.699-33.098-33.758-43.512-12.48-8.0156-27.984-13.906-46.117-17.617-18.133-3.7188-41.902-5.6289-71.629-5.6289h-15.758zm-369.82 69.277c-32.23 0-58.703 26.484-58.703 58.715 0 26.809 18.336 49.559 43.043 56.484v474.05c-24.707 6.9258-43.043 29.676-43.043 56.484 0 32.23 26.473 58.715 58.703 58.715s58.691-26.484 58.691-58.715c0-26.578-18.035-49.188-42.422-56.316 2.7852-39.648 15.984-56.148 34.922-65.891 20.977-10.789 53.195-11.688 87.422-11.688 34.223 0 70.43 0.9375 100.92-14.746 27.121-13.945 46.008-42.648 49.453-88.164 25.094-6.6719 43.801-29.617 43.801-56.699 0-26.809-18.336-49.559-43.043-56.484v-33.793c24.707-6.9258 43.043-29.676 43.043-56.484 0-26.82-18.336-49.57-43.043-56.496v-33.77c24.707-6.9258 43.043-29.676 43.043-56.484 0-32.23-26.473-58.715-58.703-58.715-26.773 0-49.477 18.301-56.438 42.949l-87.348 0.22656v-18.348l-29.352 16.922-29.34 16.969 29.34 16.945 29.352 16.945v-18.121l87.277-0.25391c5.4844 19.766 21.121 35.438 40.871 40.969v33.77c-24.707 6.9258-43.055 29.676-43.055 56.496 0 26.809 18.348 49.559 43.055 56.484v33.793c-24.707 6.9258-43.055 29.676-43.055 56.484 0 26.594 18.035 49.223 42.445 56.34-2.4727 36.551-14.844 51.539-32.617 60.684-20.328 10.453-52.344 11.27-86.605 11.27-34.273 0-70.812-0.76953-101.75 15.145-7.7539 3.9961-14.879 9.1445-21.227 15.516v-395.98c24.707-6.9258 43.055-29.676 43.055-56.484 0-32.23-26.461-58.715-58.691-58.715zm0 31.32c15.312 0 27.371 12.086 27.371 27.395 0 15.312-12.059 27.371-27.371 27.371s-27.395-12.059-27.395-27.371 12.086-27.395 27.395-27.395zm274.08 0c15.312 0 27.395 12.086 27.395 27.395 0 15.312-12.086 27.371-27.395 27.371-15.312 0-27.371-12.059-27.371-27.371s12.059-27.395 27.371-27.395zm0 146.73c15.312 0 27.395 12.086 27.395 27.406 0 15.312-12.086 27.395-27.395 27.395-15.312 0-27.371-12.086-27.371-27.395 0-15.324 12.059-27.406 27.371-27.406zm0 146.77c15.312 0 27.395 12.086 27.395 27.395 0 15.312-12.086 27.395-27.395 27.395-15.312 0-27.371-12.086-27.371-27.395 0-15.312 12.059-27.395 27.371-27.395zm-274.08 293.53c15.312 0 27.371 12.059 27.371 27.371s-12.059 27.395-27.371 27.395-27.395-12.086-27.395-27.395c0-15.312 12.086-27.371 27.395-27.371z" fill="#fff"/>
</svg>
